<?xml version="1.0" encoding="UTF-8"?><svg id="Capa_2" xmlns="http://www.w3.org/2000/svg" xmlns:xlink="http://www.w3.org/1999/xlink" viewBox="0 0 37.60396 36.9505"><defs><linearGradient id="Degradado_sin_nombre_27" x1="0" y1="18.47525" x2="37.60396" y2="18.47525" gradientUnits="userSpaceOnUse"><stop offset="0" stop-color="#0066d4"/><stop offset="1" stop-color="#00c5e9"/></linearGradient></defs><g id="Capa_3"><rect width="37.60396" height="36.9505" rx="5.22772" ry="5.22772" fill="url(#Degradado_sin_nombre_27)"/></g><g id="Capa_4"><rect x="5.64855" y="10.43455" width="26.30687" height="4.72039" rx="1.65223" ry="1.65223" fill="none" stroke="#fff" stroke-miterlimit="10"/><path d="m8.76721,15.76664h20.15865c.19672,0,.35644.15971.35644.35644v11.85065c0,1.45902-1.18454,2.64356-2.64356,2.64356h-15.6735c-1.45902,0-2.64356-1.18454-2.64356-2.64356v-11.76154c0-.2459.19964-.44554.44554-.44554Z" fill="none" stroke="#fff" stroke-miterlimit="10"/><rect x="14.15296" y="18.58119" width="1.9518" height="6.61915" rx=".68317" ry=".68317" fill="none" stroke="#fff" stroke-miterlimit="10"/><rect x="21.43267" y="18.58119" width="2.20638" height="6.61915" rx=".77228" ry=".77228" fill="none" stroke="#fff" stroke-miterlimit="10"/><line x1="14.30435" y1="3.64568" x2="12.43742" y2="10.43455" fill="none" stroke="#fff" stroke-miterlimit="10"/><line x1="23.51925" y1="3.64568" x2="24.99682" y2="10.15842" fill="none" stroke="#fff" stroke-miterlimit="10"/></g></svg>